<svg id="Layer_1" data-name="Layer 1" xmlns="http://www.w3.org/2000/svg" viewBox="0 0 256 256">
  <defs>
    <style>
      .cls-1 {
        fill: #999;
      }

      .cls-2 {
        fill: #fff;
      }
    </style>
  </defs>
  <title>invision</title>
  <g>
    <path class="cls-1" d="M232.79,0H23.21A23.21,23.21,0,0,0,0,23.21V232.79A23.21,23.21,0,0,0,23.21,256H232.79A23.21,23.21,0,0,0,256,232.79V23.21A23.21,23.21,0,0,0,232.79,0"/>
    <path class="cls-2" d="M85.56,80.54A15.41,15.41,0,1,0,69.92,65.13,15.45,15.45,0,0,0,85.56,80.54"/>
    <path class="cls-2" d="M53.13,163.07a52.84,52.84,0,0,0-1.38,11.57c0,13.57,7.36,22.58,23,22.58,13,0,23.48-7.7,31.05-20.14l-4.62,18.56h25.76l14.72-59c3.67-14.95,10.8-22.71,21.61-22.71,8.51,0,13.8,5.29,13.8,14a27.55,27.55,0,0,1-1.15,8.28l-7.59,27.13a40.83,40.83,0,0,0-1.61,11.5c0,12.88,7.59,22.31,23.46,22.31,13.57,0,24.38-8.74,30.36-29.67l-10.12-3.9c-5.06,14-9.43,16.55-12.88,16.55s-5.29-2.29-5.29-6.89a30.33,30.33,0,0,1,1.15-7.13l7.36-26.44a58.32,58.32,0,0,0,2.53-16.77c0-19.78-12-30.1-26.45-30.1-13.57,0-27.37,12.24-34.26,25.12l5-23.12H108.31l-5.52,20.36h18.4l-11.33,45.36c-8.9,19.78-25.24,20.1-27.29,19.64-3.37-.76-5.52-2-5.52-6.41a42.86,42.86,0,0,1,1.61-10.53L95.9,94.79H52.21l-5.52,20.36H64.86L53.13,163.07"/>
  </g>
</svg>
