<?xml version="1.0" encoding="utf-8"?>
<!-- Generator: Adobe Illustrator 23.0.4, SVG Export Plug-In . SVG Version: 6.00 Build 0)  -->
<svg version="1.1" xmlns="http://www.w3.org/2000/svg" xmlns:xlink="http://www.w3.org/1999/xlink" x="0px" y="0px"
	 viewBox="0 0 500 500" style="enable-background:new 0 0 500 500;" xml:space="preserve">
<style type="text/css">
	.st0{fill:#262262;}
	.st1{font-family:'Orbitron-Bold';}
	.st2{font-size:121.9638px;}
	.st3{fill:none;stroke:#262262;stroke-width:6;stroke-miterlimit:10;}
	.st4{font-size:48px;}
	.st5{fill:none;}
	.st6{font-size:121.9644px;}
</style>
<g id="Layer_4">
	<text transform="matrix(0.749 0 0 1 373.5 99.949)" class="st0 st1 st2">Z</text>
</g>
<g id="Layer_3">
	<polygon class="st3" points="320,93.5 363.3,15 276.7,15 	"/>
	<text transform="matrix(1.0556 0 0 1 300 69)" class="st0 st1 st4">v</text>
	<rect x="361.5" y="78" class="st5" width="1.5" height="2.8"/>
	<rect x="318" y="29.4" class="st5" width="4" height="3.6"/>
	<rect x="363" y="105" class="st5" width="1.3" height="2.4"/>
	<circle class="st0" cx="297" cy="26" r="2"/>
	<circle class="st0" cx="302" cy="36" r="2"/>
	<circle class="st0" cx="343" cy="26" r="2"/>
	<rect x="331.9" y="32.1" class="st5" width="4.1" height="0.9"/>
	<rect x="331.9" y="32" class="st5" width="4.1" height="1"/>
	<rect x="331.9" y="32" class="st5" width="4.1" height="1"/>
	<rect x="331.9" y="32" class="st5" width="4.1" height="1"/>
	<rect x="331.9" y="31.9" class="st5" width="4.1" height="1.1"/>
	<rect x="297.5" y="25.5" class="st0" width="45" height="1"/>
	<rect x="299.2" y="27.1" transform="matrix(0.8755 -0.4833 0.4833 0.8755 22.0998 148.7624)" class="st0" width="1" height="8.8"/>
</g>
<g id="Layer_1">
	<polygon class="st0" points="29,31.4 29,99.5 17,99.5 17,22.5 	"/>
	<polygon class="st0" points="29,11.6 29,21.6 17,12.1 17,11.6 	"/>
	<text transform="matrix(0.7391 0 0 1 32 99.449)" class="st0 st1 st6">N</text>
	<text transform="matrix(0.7391 0 0 1 107.5 99.4487)" class="st0 st1 st6">N</text>
	<rect x="282" y="110.8" class="st5" width="2.5" height="3.2"/>
	<g>
		<path class="st0" d="M216.1,23.7h35.6V68l11.8,14.6V23.4c0-6.3-5.1-11.4-11.4-11.4h-45.4L216.1,23.7z"/>
		<path class="st0" d="M251.8,87.2v0.5h-51.5v-64h0.5l-7.6-9.5c-2.8,2.1-4.6,5.4-4.6,9.2V88c0,6.3,5.1,11.4,11.4,11.4h52.1
			c2.8,0,5.4-1,7.4-2.7L251.8,87.2z"/>
	</g>
</g>
<g id="Layer_2">
</g>
</svg>
