<svg id="Layer_1" data-name="Layer 1" xmlns="http://www.w3.org/2000/svg" viewBox="0 0 256 177.16">
  <defs>
    <style>
      .cls-1 {
        fill: #999;
      }
    </style>
  </defs>
  <title>marvel</title>
  <path class="cls-1" d="M149.33,55.19,160,44.52c3.09-3.08,6-5.8,8.81-8.11s5.57-4.71,8.35-7.19q9.27-7.87,15.3-11.13a24.54,24.54,0,0,1,11.6-3.25,20.29,20.29,0,0,1,14.14,5.8q6.27,5.81,6.26,13.22a24.49,24.49,0,0,1-3,11.36q-3,5.81-10.9,16-36.18,47.3-36.17,61.22,0,6,6,6,4.64,0,10.21-4T205,110.84q4.62-5.1,11.36-13.91T228.17,80.7q5.1-7.42,8.58-10.2a12.61,12.61,0,0,1,8.12-2.79A11.1,11.1,0,0,1,256,78.84q0,8.82-8.12,23.42a188,188,0,0,1-21.1,29.92q-16.23,19.47-33.16,30.14T162.78,173q-13,0-21.33-8.58t-8.35-22a72.84,72.84,0,0,1,1.16-13.22,89.49,89.49,0,0,1,3.48-13,94.72,94.72,0,0,1,6.49-14.38A182.19,182.19,0,0,1,154.9,84.87a42.54,42.54,0,0,1,2.32-3.71,153.9,153.9,0,0,0-23.89,23.42Q121.51,118.73,109.45,141,100.63,155.82,96,160.7a15.39,15.39,0,0,1-11.59,4.87,15.94,15.94,0,0,1-12.3-5.34A18.86,18.86,0,0,1,67.25,147a43.14,43.14,0,0,1,1.15-10,81,81,0,0,1,4.88-13.21,139.59,139.59,0,0,1,6-14.15,103.89,103.89,0,0,1,6.5-11.82l8.81-15.31a21.62,21.62,0,0,0,2.78-4.64A167,167,0,0,0,79.3,94.84q-8.8,9.51-16.92,19.71A189.94,189.94,0,0,0,48,135.19a170.3,170.3,0,0,0-10.44,20.17q-5.57,13-10,17.4a15.38,15.38,0,0,1-11.36,4.4A14.5,14.5,0,0,1,4.64,171.6Q0,166,0,157.22,0,139.6,17.16,96.46A414.31,414.31,0,0,1,38.26,51,294,294,0,0,1,60.75,15.3Q67.25,7,71.88,3.48A16.63,16.63,0,0,1,82.09,0,14.68,14.68,0,0,1,92.52,4.17a13.54,13.54,0,0,1,4.41,10.21,25.75,25.75,0,0,1-2.09,9.74q-2.09,5.1-10,17.62c-.93,1.55-2.32,3.94-4.18,7.19s-4.17,7.35-7,12.29l-5.1,10.2Q82.54,54.72,93,43.13A233.62,233.62,0,0,1,111.3,24.58a73.31,73.31,0,0,1,14.15-10.2,25.1,25.1,0,0,1,11.36-3.25,15.57,15.57,0,0,1,11.13,4.41,14.44,14.44,0,0,1,4.64,10.89,27.33,27.33,0,0,1-1.86,9.28c-1.23,3.41-3.87,8.66-7.88,15.77L133.1,69.1l-3.71,7L135,70Q143.3,61.22,149.33,55.19Z"/>
</svg>
