<?xml version="1.0" encoding="utf-8"?>
<!-- Generator: Adobe Illustrator 23.0.6, SVG Export Plug-In . SVG Version: 6.00 Build 0)  -->
<svg version="1.1" id="Layer_1" xmlns="http://www.w3.org/2000/svg" xmlns:xlink="http://www.w3.org/1999/xlink" x="0px" y="0px"
	 viewBox="0 0 192.8 192.8" style="enable-background:new 0 0 192.8 192.8;" xml:space="preserve">
<style type="text/css">
	.st0{fill-rule:evenodd;clip-rule:evenodd;fill:#FFFFFF;}
	.st1{fill-rule:evenodd;clip-rule:evenodd;fill:#999999;}
</style>
<title>php</title>
<g>
	<polygon class="st0" points="0,0 192.8,0 192.8,192.8 0,192.8 	"/>
	<path class="st1" d="M96.4,138.3c45.7,0,82.7-18.8,82.7-41.9s-37-41.9-82.7-41.9S13.7,73.2,13.7,96.4S50.7,138.3,96.4,138.3
		L96.4,138.3z"/>
	<path class="st0" d="M113.1,109.9l4.1-21.1c0.9-4.8,0.2-8.3-2.3-10.6s-6.4-3.3-12.3-3.3h-7.1l2-10.5c0.1-0.7-0.3-1.4-1-1.6
		c-0.1,0-0.2,0-0.3,0h-9.8c-0.6,0-1.2,0.5-1.3,1.1l-4.4,22.4c-0.3-2.4-1.4-4.6-2.9-6.5c-2.9-3.3-7.4-5-13.5-5h-19
		c-0.7,0-1.2,0.5-1.3,1.1l-8.8,45.4c-0.1,0.4,0,0.8,0.3,1.1c0.2,0.3,0.6,0.5,1,0.5h9.9c0.6,0,1.2-0.4,1.3-1.1l2.1-11h7.4
		c3.3,0.1,6.5-0.3,9.6-1.2c2.6-0.9,5.1-2.3,7.1-4.2c1.7-1.5,3.1-3.3,4.2-5.2l-1.8,9.1c-0.1,0.7,0.3,1.4,1.1,1.6c0.1,0,0.2,0,0.3,0
		h9.8c0.6,0,1.2-0.5,1.3-1.1L93.6,85h6.7c2.9,0,3.7,0.6,3.9,0.8s0.6,1,0.2,3.5l-3.9,20.1c-0.1,0.4,0,0.8,0.3,1.1
		c0.2,0.3,0.6,0.5,1,0.5h10C112.4,111,113,110.5,113.1,109.9L113.1,109.9z M67.7,92.5c-0.6,3.2-1.8,5.4-3.4,6.7s-4.4,2-8.1,2h-4.4
		L55,84.9h5.7c4.2,0,5.8,0.9,6.5,1.6C68,87.5,68.2,89.6,67.7,92.5L67.7,92.5z"/>
	<path class="st0" d="M154.4,80c-2.9-3.3-7.4-5-13.5-5h-19c-0.6,0-1.2,0.4-1.3,1.1l-8.8,45.4c-0.1,0.4,0,0.8,0.3,1.1
		c0.2,0.3,0.6,0.5,1,0.5h10c0.6,0,1.2-0.5,1.3-1.1l2.1-11h7.4c3.3,0.1,6.5-0.3,9.6-1.2c2.6-0.9,5.1-2.3,7.1-4.2
		c3.4-3.1,5.8-7.3,6.6-11.8C158.3,87.9,157.4,83.3,154.4,80L154.4,80z M144.8,92.5c-0.6,3.2-1.8,5.4-3.5,6.7s-4.4,2-8.1,2h-4.4
		l3.2-16.3h5.7c4.2,0,5.8,0.9,6.5,1.6C145.2,87.6,145.4,89.7,144.8,92.5L144.8,92.5z"/>
	<path class="st0" d="M60.6,83.5c3.8,0,6.3,0.7,7.5,2.1s1.5,3.8,0.9,7.1c-0.7,3.5-2,6-4,7.5s-4.9,2.2-8.9,2.2h-6l3.7-19L60.6,83.5z
		 M36.5,121.7h9.9l2.4-12.1h8.5c3.1,0.1,6.2-0.3,9.2-1.2c2.5-0.8,4.7-2.2,6.6-4c3.2-2.9,5.4-6.8,6.2-11.1c1-5.4,0.2-9.6-2.4-12.6
		s-6.8-4.5-12.5-4.5h-19L36.5,121.7L36.5,121.7z"/>
	<path class="st0" d="M86.5,64.3h9.8L94,76.4h8.7c5.5,0,9.3,1,11.4,2.9s2.7,5,1.9,9.3l-4.1,21.1h-10l3.9-20.1
		c0.4-2.3,0.3-3.8-0.5-4.7s-2.4-1.2-4.9-1.2h-7.8l-5.1,26h-9.8L86.5,64.3L86.5,64.3z"/>
	<path class="st0" d="M137.7,83.5c3.8,0,6.3,0.7,7.5,2.1s1.5,3.8,0.9,7.1s-2,6-4,7.5s-4.9,2.2-8.9,2.2h-6l3.7-19L137.7,83.5z
		 M113.7,121.7h9.9l2.4-12.1h8.5c3.1,0.1,6.2-0.3,9.2-1.2c2.5-0.8,4.7-2.2,6.6-4c1.6-1.4,2.9-3.1,4-5c1-1.9,1.8-3.9,2.2-6.1
		c1-5.4,0.3-9.6-2.4-12.6s-6.8-4.5-12.5-4.5h-19L113.7,121.7L113.7,121.7z"/>
</g>
</svg>
